# xmcd
#
# Track frame offsets: 
#        150
#        33919
#        52363
#        75751
#        106934
#        128723
#        145286
#        173790
#        202328
#        218736
#
# Disc length: 3255 seconds
#
# Revision: 0
# Processed by: cddbd v1.5.2PL0 Copyright (c) Steve Scherf et al.
# Submitted via: ExactAudioCopy v0.95a5
#
DISCID=8c0cb50a
DTITLE=Jeff Strahan - Amen To The Blues
DYEAR=2008
DGENRE=Blues
TTITLE0=Southern Jeans
TTITLE1=Amen To The Blues
TTITLE2=Butterfly
TTITLE3=Living For Today
TTITLE4=Too Much Of A Good Thing
TTITLE5=Rebel By Design
TTITLE6=Give Me One Good Reason
TTITLE7=Hope And Faith
TTITLE8=New Girlfriend
TTITLE9=Take Me To Texas
EXTD=
EXTT0=
EXTT1=
EXTT2=
EXTT3=
EXTT4=
EXTT5=
EXTT6=
EXTT7=
EXTT8=
EXTT9=
PLAYORDER=
